<?xml version="1.0" encoding="utf-8"?>
<!-- Generator: Adobe Illustrator 27.9.0, SVG Export Plug-In . SVG Version: 6.00 Build 0)  -->
<svg version="1.1" id="Capa_1" xmlns="http://www.w3.org/2000/svg" xmlns:xlink="http://www.w3.org/1999/xlink" x="0px" y="0px"
	 viewBox="0 0 841.89 1190.55" style="enable-background:new 0 0 841.89 1190.55;" xml:space="preserve">
<style type="text/css">
	.st0{fill:#FFAD3F;}
	.st1{fill:#FF8615;stroke:#211915;stroke-miterlimit:10;}
	.st2{fill:#469A41;stroke:#211915;stroke-miterlimit:10;}
</style>
<path class="st0" d="M2180.12,417.29v-76.54h-382.68v76.54h8.5v113.39h-8.5v56.69h77.95v8.5h226.77v-8.5h77.95v-56.69h-8.5V417.29
	H2180.12z M1984.51,417.15h8.53v113.67h-8.53V417.15z"/>
<path class="st0" d="M813.27,238.57v-93.54c0-53.23-43.15-96.38-96.38-96.38h0v60.24h-8.5v141.73h8.5v158.03h19.84v8.5h56.69v-8.5
	h19.84v-56.69h8.5V238.57H813.27z"/>
<path class="st0" d="M684.98,220.83v-93.54c0-53.23-43.15-96.38-96.38-96.38h0v60.24h-8.5v141.73h8.5v158.03h19.84v8.5h56.69v-8.5
	h19.84v-56.69h8.5V220.83H684.98z"/>
<path class="st0" d="M125,86.9V26.66l0,0c-53.23,0-96.38,43.15-96.38,96.38v93.54h-8.5v113.39h8.5v56.69h19.84v8.5h56.69v-8.5H125
	V228.63h8.5V86.9H125z"/>
<path class="st0" d="M2180.12,672.7v-28.35h-77.95v8.5h-226.77v-8.5h-77.95v28.35h8.5v56.69h-8.5v28.35h77.95v-8.5h226.77v8.5h77.95
	v-28.35h-8.5V672.7H2180.12z M1993.03,729.39h-8.5V672.7h8.5V729.39z"/>
<path class="st0" d="M564.58,91.15V30.91H181.91v60.24h8.5v141.73h-8.5v158.03h77.95v8.5h226.77v-8.5h77.95V232.89h-8.5V91.15
	H564.58z M280.13,98.24c-3.91,0-7.09-3.17-7.09-7.09s3.17-7.09,7.09-7.09c3.91,0,7.09,3.17,7.09,7.09S284.05,98.24,280.13,98.24z
	 M377.51,232.9h-8.53V91.14h8.53V232.9z M466.54,98.24c-3.91,0-7.09-3.17-7.09-7.09s3.17-7.09,7.09-7.09c3.91,0,7.09,3.17,7.09,7.09
	S470.46,98.24,466.54,98.24z"/>
<path class="st1" d="M2176.92,1195.46v-72.28h-561.26v72.28h8.5v170.08h-8.5v89.29h110.55v8.5h340.16v-8.5h110.55v-89.29h-8.5
	v-170.08H2176.92z M1984.15,1195.43h8.53v170.11h-8.53V1195.43z M1799.89,1195.43h8.53v170.11h-8.53V1195.43z M1712.03,1188.13
	c-3.91,0-7.09-3.17-7.09-7.09c0-3.91,3.17-7.09,7.09-7.09c3.91,0,7.09,3.17,7.09,7.09
	C1719.12,1184.96,1715.95,1188.13,1712.03,1188.13z M2080.54,1188.13c-3.91,0-7.09-3.17-7.09-7.09c0-3.91,3.17-7.09,7.09-7.09
	c3.91,0,7.09,3.17,7.09,7.09C2087.62,1184.96,2084.45,1188.13,2080.54,1188.13z"/>
<path class="st1" d="M2140.61,1542.21v-21.26h-110.55v8.5h-340.16v-8.5h-110.55v21.26h8.5v70.87h-8.5v21.26h110.55v-8.5h340.16v8.5
	h110.55v-21.26h-8.5v-70.87H2140.61z M1772.11,1613.08h-8.5v-70.87h8.5V1613.08z M1956.36,1613.08h-8.5v-70.87h8.5V1613.08z"/>
<path class="st1" d="M1560.66,1691.96v8.5v5.67v62.36v42.52h8.5v85.04h-8.5v42.52h110.55v8.5h340.16v-8.5h110.55v-42.52h-8.5v-85.04
	h8.5v-42.52v-62.36v-5.67l0,0v-8.5H1560.66z M1753.41,1896.06h-8.5v-85.04h8.5V1896.06z M1937.66,1896.06h-8.5v-85.04h8.5V1896.06z"
	/>
<path class="st1" d="M2290.67,1223.46v-80.79h0c53.23,0,96.38,43.15,96.38,96.38v107.72h8.5v85.04h-8.5v42.52v8.5h-12.76v8.5h-70.87
	v-8.5h-12.76v-8.5v-80.79h-8.5v-170.08H2290.67z"/>
<path class="st1" d="M2293.88,1674.62v-80.79h0c53.23,0,96.38,43.15,96.38,96.38v107.72h8.5v85.04h-8.5v42.52v8.5h-12.76v8.5h-70.87
	v-8.5h-12.76v-8.5v-80.79h-8.5v-170.08H2293.88z"/>
<path class="st1" d="M2466.67,1671.46v-80.79h0c53.23,0,96.38,43.15,96.38,96.38v107.72h8.5v85.04h-8.5v42.52v8.5h-12.76v8.5h-70.87
	v-8.5h-12.76v-8.5v-80.79h-8.5v-170.08H2466.67z"/>
<path class="st1" d="M2457.88,1222.62v-80.79h0c53.23,0,96.38,43.15,96.38,96.38v107.72h8.5v85.04h-8.5v42.52v8.5h-12.76v8.5h-70.87
	v-8.5h-12.76v-8.5v-80.79h-8.5v-170.08H2457.88z"/>
<polygon class="st2" points="1233.65,785.21 1233.65,674.65 1046.56,674.65 1046.56,785.21 1055.07,785.21 1055.07,870.25 
	1046.56,870.25 1046.56,912.76 1097.59,912.76 1097.59,921.27 1182.63,921.27 1182.63,912.76 1233.65,912.76 1233.65,870.25 
	1225.15,870.25 1225.15,785.21 "/>
<polygon class="st2" points="1598.57,976.31 1598.57,955.05 1547.54,955.05 1547.54,963.55 1462.5,963.55 1462.5,955.05 
	1411.48,955.05 1411.48,976.31 1419.98,976.31 1419.98,1047.17 1411.48,1047.17 1411.48,1068.43 1462.5,1068.43 1462.5,1059.93 
	1547.54,1059.93 1547.54,1068.43 1598.57,1068.43 1598.57,1047.17 1590.06,1047.17 1590.06,976.31 "/>
<path class="st2" d="M1664.2,695.68v-80.79l0,0c53.23,0,96.38,43.15,96.38,96.38v107.72h8.5v85.04h-8.5v42.52h-12.76v8.5h-70.87
	v-8.5h-12.76v-80.79h-8.5V695.68H1664.2z"/>
<path class="st2" d="M1363.29,661.9v-80.79l0,0c-53.23,0-96.38,43.15-96.38,96.38v107.72h-8.5v85.04h8.5v42.52h12.76v8.5h70.87v-8.5
	h12.76v-80.79h8.5V661.9H1363.29z"/>
<path class="st2" d="M1587.23,661.9v-80.79h-187.09v80.79h8.5v170.08h-8.5v80.79h51.02v8.5h85.04v-8.5h51.02v-80.79h-8.5V661.9
	H1587.23z M1493.68,627.05c3.91,0,7.09,3.17,7.09,7.09s-3.17,7.09-7.09,7.09c-3.91,0-7.09-3.17-7.09-7.09
	S1489.77,627.05,1493.68,627.05z"/>
</svg>
